<?xml version="1.0" encoding="utf-8"?>
<!-- Generator: Adobe Illustrator 16.0.0, SVG Export Plug-In . SVG Version: 6.00 Build 0)  -->
<!DOCTYPE svg PUBLIC "-//W3C//DTD SVG 1.1//EN" "http://www.w3.org/Graphics/SVG/1.1/DTD/svg11.dtd">
<svg version="1.1" id="Layer_1" xmlns="http://www.w3.org/2000/svg" xmlns:xlink="http://www.w3.org/1999/xlink" x="0px" y="0px"
	 width="3370.393px" height="2383.934px" viewBox="0 0 3370.393 2383.934" enable-background="new 0 0 3370.393 2383.934"
	 xml:space="preserve">
<path fill="#25396F" d="M1554.361,1047.556c0,17.311-4.478,32.884-13.434,46.719c-8.89,13.835-21.99,24.663-39.233,32.483
	c-17.243,7.819-37.696,11.696-61.29,11.696c-28.338,0-51.731-5.348-70.111-15.974c-13.033-7.688-23.594-17.98-31.747-30.813
	c-8.155-12.833-12.231-25.331-12.231-37.496c0-7.018,2.473-13.033,7.352-18.112c4.88-5.012,11.096-7.485,18.647-7.485
	c6.149,0,11.296,1.938,15.507,5.882c4.277,3.877,7.887,9.691,10.895,17.444c3.609,9.091,7.619,16.776,11.829,22.858
	c4.277,6.148,10.227,11.229,17.912,15.238c7.753,3.943,17.845,5.949,30.411,5.949c17.177,0,31.212-4.011,41.973-12.03
	c10.761-8.021,16.175-18.047,16.175-30.077c0-9.558-2.874-17.312-8.688-23.192c-5.814-5.949-13.368-10.493-22.591-13.635
	c-9.156-3.142-21.521-6.483-36.895-10.025c-20.585-4.813-37.896-10.493-51.731-16.91c-13.903-6.483-24.931-15.306-33.085-26.468
	c-8.153-11.162-12.231-24.997-12.231-41.639c0-15.773,4.278-29.81,12.899-42.107c8.622-12.231,21.121-21.655,37.429-28.272
	c16.309-6.617,35.49-9.893,57.547-9.893c17.579,0,32.816,2.207,45.716,6.551c12.833,4.411,23.526,10.227,32.016,17.444
	c8.421,7.218,14.637,14.838,18.58,22.792c3.877,7.953,5.882,15.773,5.882,23.326c0,6.884-2.473,13.167-7.352,18.715
	c-4.879,5.547-11.029,8.287-18.313,8.287c-6.684,0-11.696-1.671-15.172-4.945c-3.476-3.342-7.219-8.823-11.229-16.375
	c-5.279-10.828-11.496-19.316-18.848-25.398c-7.286-6.082-19.05-9.09-35.291-9.09c-14.971,0-27.136,3.274-36.292,9.892
	c-9.225,6.617-13.836,14.505-13.836,23.794c0,5.748,1.537,10.694,4.679,14.904c3.142,4.145,7.485,7.753,12.966,10.762
	c5.48,3.008,11.028,5.347,16.643,7.084c5.614,1.672,14.904,4.145,27.805,7.42c16.174,3.809,30.878,7.953,43.978,12.564
	c13.1,4.546,24.263,10.093,33.485,16.644c9.223,6.483,16.375,14.771,21.521,24.729c5.146,10.026,7.753,22.258,7.753,36.761
	L1554.361,1047.556z M1606.094,1103.03V876.921c0-11.764,2.674-20.52,8.021-26.4c5.346-5.882,12.297-8.823,20.785-8.823
	c8.688,0,15.773,2.875,21.188,8.689c5.413,5.814,8.153,14.637,8.153,26.534v226.109c0,11.897-2.741,20.72-8.153,26.601
	c-5.414,5.883-12.5,8.823-21.188,8.823c-8.355,0-15.239-2.94-20.652-8.89C1608.834,1123.616,1606.094,1114.793,1606.094,1103.03
	L1606.094,1103.03z M1826.188,1090.332l-46.051-182.867v198.105c0,10.961-2.474,19.183-7.353,24.663
	c-4.879,5.479-11.361,8.221-19.383,8.221c-7.818,0-14.235-2.741-19.182-8.154c-4.945-5.414-7.419-13.635-7.419-24.729V878.459
	c0-12.565,3.276-20.986,9.759-25.398c6.55-4.344,15.372-6.551,26.401-6.551h18.045c10.828,0,18.648,1.004,23.526,2.941
	c4.88,1.938,8.556,5.48,10.895,10.56c2.34,5.081,5.014,13.368,8.021,24.864l41.705,157.334l41.707-157.334
	c3.008-11.496,5.682-19.783,8.021-24.864c2.339-5.079,5.948-8.621,10.827-10.56s12.767-2.941,23.594-2.941h17.979
	c11.095,0,19.918,2.207,26.467,6.551c6.483,4.411,9.758,12.833,9.758,25.398v227.111c0,10.961-2.474,19.183-7.352,24.663
	c-4.88,5.479-11.429,8.221-19.583,8.221c-7.687,0-14.036-2.741-18.982-8.221c-4.945-5.48-7.418-13.702-7.418-24.663V907.465
	l-46.051,182.867c-3.008,11.829-5.414,20.585-7.353,26.133c-1.872,5.48-5.347,10.561-10.427,15.105
	c-5.146,4.611-12.163,6.884-21.187,6.884c-6.817,0-12.565-1.47-17.243-4.411c-4.679-2.94-8.355-6.684-10.962-11.228
	c-2.606-4.612-4.679-9.625-6.149-15.173C1829.263,1102.096,1827.726,1096.28,1826.188,1090.332L1826.188,1090.332z
	 M2174.676,1021.757h-53.27v81.273c0,11.63-2.74,20.385-8.221,26.4s-12.432,9.023-20.72,9.023c-8.756,0-15.841-2.94-21.188-8.89
	c-5.347-5.948-8.021-14.703-8.021-26.133V882.135c0-12.766,2.941-21.923,8.822-27.403c5.883-5.481,15.173-8.221,28.006-8.221h74.59
	c22.056,0,39.033,1.671,50.93,5.08c11.763,3.274,21.923,8.688,30.479,16.241c8.555,7.619,15.038,16.843,19.449,27.804
	c4.479,10.961,6.684,23.327,6.684,37.027c0,29.274-9.022,51.397-27.002,66.503
	C2237.169,1014.205,2210.367,1021.757,2174.676,1021.757L2174.676,1021.757z M2160.573,890.223h-39.167v87.822h39.167
	c13.702,0,25.198-1.47,34.421-4.344c9.156-2.874,16.175-7.553,21.054-14.102c4.812-6.484,7.219-15.106,7.219-25.666
	c0-12.699-3.743-22.992-11.162-30.945C2203.75,894.5,2186.573,890.223,2160.573,890.223z M2389.289,876.988v100.657l114.158-119.104
	c5.48-5.747,10.158-9.958,13.967-12.698c3.878-2.74,9.024-4.145,15.373-4.145c8.355,0,15.173,2.474,20.32,7.353
	c5.145,4.879,7.686,10.827,7.686,17.912c0,8.488-4.345,16.91-13.101,25.264l-70.646,66.904l81.407,116.697
	c5.747,8.088,10.092,15.172,12.966,21.254c2.874,6.016,4.278,11.965,4.278,17.712c0,6.35-2.541,11.897-7.553,16.643
	c-5.014,4.679-11.83,7.019-20.453,7.019c-8.087,0-14.703-1.738-19.783-5.214c-5.08-3.408-9.357-8.02-12.899-13.768
	c-3.542-5.749-6.684-10.962-9.425-15.641l-68.707-105.735l-47.588,45.582v59.352c0,12.03-2.742,20.92-8.223,26.734
	s-12.564,8.689-21.119,8.689c-5.014,0-9.758-1.337-14.303-3.943c-4.611-2.606-8.087-6.082-10.561-10.561
	c-1.871-3.61-2.941-7.888-3.342-12.7c-0.401-4.812-0.602-11.829-0.602-20.919V876.921c0-11.763,2.606-20.52,7.752-26.4
	c5.146-5.882,12.166-8.822,21.055-8.822c8.689,0,15.773,2.874,21.188,8.688S2389.289,865.091,2389.289,876.988L2389.289,876.988z
	 M2684.508,876.922v208.999h117.9c9.355,0,16.575,2.272,21.588,6.817c5.08,4.611,7.553,10.359,7.553,17.243
	c0,7.019-2.473,12.767-7.418,17.111c-4.946,4.344-12.232,6.55-21.723,6.55h-140.425c-12.632,0-21.722-2.808-27.269-8.421
	c-5.549-5.615-8.355-14.704-8.355-27.202V876.922c0-11.696,2.674-20.52,7.954-26.4c5.279-5.882,12.231-8.823,20.853-8.823
	c8.689,0,15.773,2.875,21.188,8.689C2681.767,856.201,2684.508,865.092,2684.508,876.922z M1554.361,1451.336
	c0,17.311-4.478,32.885-13.434,46.719c-8.89,13.836-21.99,24.662-39.233,32.484c-17.243,7.818-37.696,11.695-61.29,11.695
	c-28.338,0-51.731-5.348-70.111-15.973c-13.033-7.688-23.594-17.98-31.747-30.813c-8.155-12.834-12.231-25.332-12.231-37.496
	c0-7.018,2.473-13.033,7.352-18.113c4.88-5.012,11.096-7.484,18.647-7.484c6.149,0,11.296,1.938,15.507,5.881
	c4.277,3.877,7.887,9.691,10.895,17.445c3.609,9.09,7.619,16.775,11.829,22.857c4.277,6.148,10.227,11.229,17.912,15.238
	c7.753,3.943,17.845,5.949,30.411,5.949c17.177,0,31.212-4.01,41.973-12.031c10.761-8.02,16.175-18.045,16.175-30.076
	c0-9.557-2.874-17.311-8.688-23.191c-5.814-5.949-13.368-10.494-22.591-13.635c-9.156-3.143-21.521-6.484-36.895-10.025
	c-20.585-4.813-37.896-10.494-51.731-16.91c-13.903-6.484-24.931-15.307-33.085-26.469c-8.153-11.162-12.231-24.996-12.231-41.639
	c0-15.773,4.278-29.809,12.899-42.107c8.622-12.23,21.121-21.654,37.429-28.271c16.309-6.617,35.49-9.893,57.547-9.893
	c17.579,0,32.816,2.207,45.716,6.551c12.833,4.41,23.526,10.225,32.016,17.443c8.421,7.219,14.637,14.838,18.58,22.793
	c3.877,7.953,5.882,15.773,5.882,23.326c0,6.883-2.473,13.166-7.352,18.713s-11.029,8.289-18.313,8.289
	c-6.684,0-11.696-1.672-15.172-4.945c-3.476-3.344-7.219-8.824-11.229-16.375c-5.279-10.828-11.496-19.316-18.848-25.398
	c-7.286-6.082-19.05-9.09-35.291-9.09c-14.971,0-27.136,3.273-36.292,9.891c-9.225,6.617-13.836,14.506-13.836,23.795
	c0,5.748,1.537,10.695,4.679,14.904c3.142,4.145,7.485,7.752,12.966,10.76s11.028,5.348,16.643,7.086
	c5.614,1.67,14.904,4.145,27.805,7.418c16.174,3.811,30.878,7.955,43.978,12.566c13.1,4.545,24.263,10.092,33.485,16.643
	c9.223,6.482,16.375,14.77,21.521,24.729c5.146,10.025,7.753,22.258,7.753,36.762L1554.361,1451.336z M1662.237,1280.77v100.656
	l114.157-119.104c5.48-5.748,10.16-9.959,13.969-12.699c3.877-2.74,9.023-4.145,15.373-4.145c8.354,0,15.172,2.473,20.318,7.354
	c5.146,4.877,7.687,10.826,7.687,17.91c0,8.488-4.345,16.91-13.101,25.264l-70.646,66.906l81.407,116.697
	c5.747,8.086,10.092,15.172,12.966,21.252c2.874,6.016,4.277,11.965,4.277,17.713c0,6.35-2.539,11.896-7.552,16.643
	c-5.013,4.678-11.83,7.018-20.452,7.018c-8.087,0-14.704-1.738-19.783-5.213c-5.08-3.408-9.357-8.02-12.899-13.768
	s-6.685-10.961-9.425-15.641l-68.707-105.736l-47.588,45.582v59.352c0,12.031-2.741,20.92-8.222,26.734
	c-5.481,5.814-12.565,8.689-21.12,8.689c-5.014,0-9.759-1.336-14.303-3.943c-4.612-2.605-8.088-6.082-10.562-10.561
	c-1.87-3.609-2.94-7.887-3.342-12.699s-0.602-11.83-0.602-20.92v-213.41c0-11.764,2.606-20.52,7.753-26.4
	c5.146-5.883,12.164-8.822,21.054-8.822c8.689,0,15.773,2.873,21.187,8.689C1659.496,1259.983,1662.237,1268.872,1662.237,1280.77z
	 M2084.244,1504.874l-13.701-36.025h-116.697l-13.702,36.76c-5.347,14.371-9.892,24.061-13.701,29.074
	c-3.743,5.012-9.958,7.553-18.581,7.553c-7.286,0-13.768-2.674-19.383-8.021c-5.614-5.346-8.422-11.428-8.422-18.18
	c0-3.943,0.668-8.02,1.938-12.164c1.337-4.211,3.476-9.959,6.483-17.443l73.387-186.342c2.139-5.348,4.611-11.764,7.553-19.248
	c2.939-7.553,6.082-13.77,9.424-18.715s7.686-8.955,13.1-12.031c5.414-3.074,12.098-4.611,20.051-4.611
	c8.155,0,14.905,1.537,20.318,4.611c5.414,3.076,9.758,7.02,13.101,11.83c3.343,4.813,6.149,10.025,8.421,15.572
	c2.272,5.549,5.214,12.967,8.689,22.191l74.991,185.205c5.882,14.102,8.823,24.328,8.823,30.746c0,6.615-2.74,12.766-8.288,18.313
	s-12.298,8.287-20.119,8.287c-4.544,0-8.487-0.801-11.763-2.473c-3.208-1.604-5.948-3.809-8.221-6.617
	c-2.206-2.807-4.545-7.15-7.086-12.898C2088.254,1514.432,2086.114,1509.286,2084.244,1504.874L2084.244,1504.874z
	 M1969.152,1425.137h85.752l-43.244-118.303L1969.152,1425.137L1969.152,1425.137z M2441.22,1420.725v55.008
	c0,7.352-0.734,13.166-2.139,17.51c-1.471,4.412-4.076,8.355-7.953,11.83c-3.877,3.543-8.822,6.951-14.838,10.227
	c-17.312,9.357-34.021,16.176-50.061,20.52c-16.041,4.277-33.553,6.416-52.469,6.416c-22.056,0-42.174-3.408-60.286-10.16
	c-18.18-6.816-33.618-16.643-46.384-29.609c-12.834-12.898-22.658-28.539-29.477-46.92c-6.883-18.445-10.293-38.965-10.293-61.689
	c0-22.322,3.343-42.709,9.959-61.289c6.684-18.514,16.441-34.221,29.408-47.188c12.9-12.898,28.607-22.791,47.188-29.607
	c18.515-6.885,39.501-10.293,63.027-10.293c19.315,0,36.426,2.605,51.264,7.752c14.904,5.146,27.002,11.629,36.225,19.451
	c9.291,7.818,16.242,16.107,20.987,24.863c4.679,8.756,7.019,16.508,7.019,23.326c0,7.285-2.741,13.5-8.154,18.646
	c-5.414,5.213-11.898,7.754-19.518,7.754c-4.144,0-8.154-0.936-12.029-2.941c-3.878-1.938-7.085-4.678-9.692-8.154
	c-7.218-11.229-13.233-19.717-18.179-25.463c-5.012-5.682-11.697-10.563-20.051-14.438c-8.422-3.943-19.182-5.883-32.216-5.883
	c-13.435,0-25.465,2.34-36.026,6.951c-10.56,4.611-19.582,11.363-27.068,20.186c-7.486,8.756-13.234,19.582-17.244,32.35
	c-3.943,12.832-5.947,27-5.947,42.508c0,33.686,7.752,59.551,23.191,77.73c15.439,18.113,37.027,27.203,64.631,27.203
	c13.436,0,26.067-1.738,37.897-5.279c11.763-3.543,23.794-8.555,35.892-15.105v-46.586h-44.981c-10.828,0-19.05-1.604-24.597-4.879
	c-5.548-3.275-8.287-8.822-8.287-16.709c0-6.35,2.34-11.697,6.951-15.84c4.611-4.211,10.895-6.283,18.914-6.283h65.968
	c8.087,0,14.972,0.736,20.586,2.139c5.614,1.471,10.159,4.678,13.567,9.625c3.477,4.945,5.213,12.432,5.213,22.324L2441.22,1420.725
	z M2664.99,1504.874l-13.701-36.025h-116.697l-13.701,36.76c-5.348,14.371-9.893,24.063-13.702,29.074
	c-3.743,5.012-9.959,7.553-18.581,7.553c-7.285,0-13.768-2.674-19.383-8.021c-5.614-5.346-8.422-11.428-8.422-18.18
	c0-3.943,0.668-8.02,1.939-12.164c1.336-4.211,3.475-9.959,6.482-17.443l73.387-186.342c2.139-5.348,4.612-11.764,7.553-19.248
	c2.94-7.553,6.082-13.768,9.424-18.715c3.343-4.945,7.686-8.955,13.101-12.031c5.413-3.074,12.097-4.611,20.051-4.611
	c8.155,0,14.905,1.537,20.317,4.611c5.415,3.076,9.759,7.02,13.102,11.832c3.342,4.813,6.148,10.023,8.42,15.57
	c2.273,5.549,5.215,12.967,8.69,22.191l74.991,185.205c5.881,14.102,8.822,24.328,8.822,30.746c0,6.617-2.74,12.766-8.287,18.313
	c-5.549,5.547-12.299,8.287-20.119,8.287c-4.545,0-8.488-0.801-11.764-2.473c-3.207-1.604-5.948-3.809-8.221-6.617
	c-2.205-2.807-4.545-7.15-7.085-12.898C2669,1514.432,2666.861,1509.286,2664.99,1504.874L2664.99,1504.874z M2549.898,1425.137
	h85.752l-43.244-118.303L2549.898,1425.137L2549.898,1425.137z M2920.975,1298.415h-63.428v208.396
	c0,12.031-2.673,20.92-8.087,26.734c-5.348,5.814-12.299,8.689-20.786,8.689c-8.622,0-15.707-2.941-21.122-8.822
	c-5.413-5.883-8.152-14.705-8.152-26.602v-208.396h-63.43c-9.958,0-17.311-2.207-22.123-6.551
	c-4.813-4.412-7.285-10.227-7.285-17.445c0-7.418,2.54-13.299,7.554-17.645c5.012-4.344,12.298-6.482,21.854-6.482h185.005
	c10.093,0,17.511,2.205,22.458,6.684c4.879,4.479,7.352,10.291,7.352,17.443c0,7.219-2.54,13.033-7.485,17.445
	c-4.946,4.344-12.364,6.549-22.323,6.549L2920.975,1298.415z M3143.543,1504.874l-13.701-36.025h-116.697l-13.702,36.76
	c-5.348,14.369-9.892,24.061-13.702,29.074c-3.742,5.012-9.959,7.553-18.58,7.553c-7.286,0-13.768-2.674-19.383-8.021
	c-5.614-5.346-8.422-11.428-8.422-18.18c0-3.943,0.668-8.02,1.939-12.164c1.336-4.211,3.475-9.959,6.482-17.443l73.387-186.342
	c2.139-5.348,4.612-11.764,7.553-19.25c2.94-7.551,6.082-13.768,9.424-18.713c3.343-4.947,7.686-8.957,13.101-12.031
	c5.413-3.074,12.097-4.611,20.051-4.611c8.155,0,14.905,1.537,20.318,4.611c5.414,3.076,9.758,7.02,13.101,11.83
	c3.341,4.813,6.148,10.025,8.421,15.572c2.272,5.549,5.214,12.967,8.689,22.191l74.991,185.205
	c5.881,14.102,8.822,24.328,8.822,30.744c0,6.617-2.74,12.768-8.287,18.314c-5.549,5.547-12.299,8.287-20.119,8.287
	c-4.545,0-8.488-0.803-11.763-2.473c-3.208-1.604-5.948-3.811-8.222-6.617c-2.205-2.807-4.545-7.152-7.084-12.9
	C3147.552,1514.43,3145.414,1509.284,3143.543,1504.874L3143.543,1504.874z M3028.451,1425.135h85.751l-43.243-118.301
	L3028.451,1425.135z"/>
<g id="_2334291844368">
	<path fill="#39B076" d="M559.484,1049.766c8.228-3.223,98.08-3.34,107.52-0.075c19.993,6.917,20.41,78.176,0.027,85.54
		c-9.309,3.362-98.818,3.358-108.104-0.017C537.622,1127.471,539.693,1057.516,559.484,1049.766L559.484,1049.766z
		 M168.342,1437.743l1.034-325.29c9.483,93.292,165.148,69.435,252.588,69.435c108.913,0,217.922-0.452,326.822,0.027l4.238,0.089
		c14.612-9.813,96.923-44.751,113.62-45.01c37.132-0.575,81.486,35.18,117.432,42.946c34.043-1.244,69.083-37.054,72.503-67.709
		v102.072l0.507,48.953l3.873,0.051c-4.22-60.906-0.55-131.937-0.601-193.936c-0.04-49.521,5.504-149.241-1.55-192.386
		c-18.759-114.757-198.744-67.53-312.238-76.086l-43.791,0.027l-178.616,0.015l-44.774-0.032
		c-72.871,5.435-167.19-7.383-236.692,1.699c-79.049,10.329-77.055,80.848-77.055,160.208c0,47.818-3.241,467.778,2.701,474.928
		L168.342,1437.743z"/>
	<path fill="#339967" d="M168.343,1437.743c-2.119,33.871,32.476,65.4,57.741,74.223c26.053,9.096,94.743,5.121,126.992,5.121
		c85.797,0,177.409-3.096,262.481,0.203l0.8-182.584l-2.255,44.48c-73.126-20.717-104.155-90.615-28.972-123.34
		c24.129-10.502,153.553-63.838,163.656-73.93c-108.901-0.48-217.91-0.027-326.822-0.027c-87.439,0-243.104,23.858-252.589-69.436
		l-1.033,325.292V1437.743z"/>
	<path fill="#78909C" d="M616.636,1330.973c10.252-20.58,96.688-26.848,125.005-31.344c20.575-3.266,125.268-22.936,136.873-20.846
		c19.082,3.436,25.772,32.873-10.257,38.637c-47.533,7.602-172.928,25.539-204.006,33.826l49.87,24.748
		c31.71,7.699,131.399,63.871,154.571,63.645c12.164-0.119,139.345-56.469,154.105-64.611l37.828-14.623l90.554-43.334l0.159-11.002
		l-90.381-42.764l-3.873-0.051l-180.752-80.729l-15.615-0.092c-16.535,12.215-112.53,50.543-140.031,62.557
		c-22.64,9.889-134.641,44.543-131.713,70.922l-1.108,2.209L616.636,1330.973L616.636,1330.973z"/>
	<path fill="#37474F" d="M714.122,1375.995l-20.917,141.305l0.107,15.836c118.642,14.865,142.937,72.732,175.38,92.191
		c60.162-57.09,71.179-70.807,174.894-92.654l-1.387-51.242l-19.401-106.402c-14.761,8.143-141.941,64.492-154.104,64.611
		c-23.173,0.227-122.863-55.945-154.572-63.643L714.122,1375.995z"/>
	<path fill="#FEB301" d="M616.636,1330.973l-0.278,3.732l-0.8,182.584c4.559,94.486-14.821,45.971-15.188,84.807
		c-0.18,19.141,24.909,61.281,34.521,69.475c10.225-8.627,33.961-51.014,34.687-67.48c1.717-38.93-21.05,6.496-15.443-86.781
		c-1.611-28.59-0.037-59.693,0.008-88.574c0.027-17.664-9.135-75.637,10.109-77.488c31.077-8.287,156.473-26.225,204.006-33.826
		c36.029-5.764,29.339-35.201,10.257-38.637c-11.605-2.092-116.298,17.578-136.874,20.846
		C713.325,1304.125,626.888,1310.393,616.636,1330.973L616.636,1330.973z"/>
	<path fill="#248255" d="M616.358,1334.706l0.278-3.732l-28.77-12.852l1.108-2.209c-2.929-26.379,109.072-61.033,131.713-70.922
		c27.501-12.012,123.496-50.342,140.031-62.557l-107.694-0.43l-4.238-0.089c-10.104,10.093-139.527,63.429-163.656,73.931
		c-75.183,32.723-44.153,102.623,28.972,123.34L616.358,1334.706L616.358,1334.706z"/>
	<path fill="#37474F" d="M479.388,800.909l44.774,0.031c-5.812-60.429,36.308-43.64,89.854-43.64
		c62.283,0,86.306-17.514,88.764,43.626l43.791-0.027c4.218-96.897-52.313-88.343-132.555-88.343
		C531.705,712.557,475.334,704.058,479.388,800.909L479.388,800.909z"/>
	<path fill="#FFF3E0" d="M559.484,1049.766c-19.792,7.75-21.863,77.705-0.558,85.448c9.285,3.375,98.796,3.379,108.104,0.017
		c20.384-7.363,19.966-78.623-0.027-85.54C657.564,1046.426,567.711,1046.543,559.484,1049.766L559.484,1049.766z"/>
	<path fill="#248255" d="M654.135,1517.311l39.07-0.012l20.918-141.303l-49.87-24.75c-19.244,1.852-10.083,59.826-10.109,77.49
		C654.097,1457.616,652.524,1488.721,654.135,1517.311L654.135,1517.311z"/>
	<polygon fill="#248255" points="1057.087,1263.256 1056.58,1214.303 984.077,1181.633 876.334,1182.526 	"/>
	<path fill="#2C9965" d="M753.025,1182.004l107.694,0.43l15.615,0.092l107.743-0.893v-1.693
		c-35.946-7.767-80.301-43.521-117.432-42.946C849.948,1137.252,767.638,1172.189,753.025,1182.004L753.025,1182.004z"/>
	<path fill="#248255" d="M1022.8,1375.028l19.4,106.402c26.983-38.201,14.059-70.104,18.428-121.025L1022.8,1375.028
		L1022.8,1375.028z"/>
	<path fill="#2C9965" d="M984.077,1179.94v1.692l72.503,32.67V1112.23C1053.16,1142.887,1018.119,1178.695,984.077,1179.94z"/>
</g>
</svg>
